SILVERTORRENT Clean Verified Torrents Download
 
http://silvertorrent.org/

--------------------------------------------------

Lawless.2012.TS.XViD.AC3.SeeN-CM8



Thx SeeN


Video Source: Cam - HP, Thx awesome job as usual
Audio Source: LiNe Audio - DrunkenNinja, ThX pure Quality, Awesome work Bro

Video: 688x304 @ 1400Kbps 2pass
Audio: English AC3 2.0 @ 128Kbps
Subtitles: N/A
Sample: Yes, included

 
http://www.imdb.com/title/tt1212450/


Complete name : Lawless.2012.TS.XViD.AC3.SeeN-CM8.avi
Format : AVI
Format/Info : Audio Video Interleave
File size : 1.16 GiB
Duration : 1h 48mn
Overall bit rate : 1 522 Kbps
Writing library : VirtualDub build 34807/release

Video
ID : 0
Format : MPEG-4 Visual
Format profile : Advanced Simple@L5
Format settings, BVOP : 2
Format settings, QPel : No
Format settings, GMC : No warppoints
Format settings, Matrix : Default (H.263)
Muxing mode : Packed bitstream
Codec ID : XVID
Codec ID/Hint : XviD
Duration : 1h 48mn
Bit rate : 1 383 Kbps
Width : 688 pixels
Height : 304 pixels
Display aspect ratio : 2.25:1
Frame rate : 29.970 fps
Color space : YUV
Chroma subsampling : 4:2:0
Bit depth : 8 bits
Scan type : Progressive
Compression mode : Lossy
Bits/(Pixel*Frame) : 0.221
Stream size : 1.05 GiB (91%)
Writing library : XviD 64

Audio
ID : 1
Format : AC-3
Format/Info : Audio Coding 3
Mode extension : CM (complete main)
Format settings, Endianness : Big
Codec ID : 2000
Duration : 1h 48mn
Bit rate mode : Constant
Bit rate : 128 Kbps
Channel(s) : 2 channels
Channel positions : Front: L R
Sampling rate : 48.0 KHz
Bit depth : 16 bits
Compression mode : Lossy
Stream size : 99.5 MiB (8%)
Alignment : Aligned on interleaves
Interleave, duration : 33 ms (1.00 video frame)
Interleave, preload duration : 512 ms


Plot:
Set in Depression-era Franklin County, Virginia, a bootlegging gang
is threatened by a new deputy and other authorities who want a cut
of their profits.


Director: John Hillcoat
Writers: Nick Cave (screenplay), Matt Bondurant (novel)
Stars: Tom Hardy, Shia LaBeouf and Guy Pearce

Screen Shots: 
http://img826.imageshack.us/img826/5646/redfgtgbvcdrftg.png 
http://img62.imageshack.us/img62/637/sdfgtredfvgcdf.png 
http://img829.imageshack.us/img829/6566/vfgbvcfghyt.png 
http://img337.imageshack.us/img337/46/olkloikloikjh.png 
http://img836.imageshack.us/img836/2691/lkloikjkiokjm.png 
http://img194.imageshack.us/img194/4774/loikjiuhj.png 
http://img204.imageshack.us/img204/5332/jhjuyhujnhbvghjk.png 
http://img528.imageshack.us/img528/2943/hnbhnjmjhnbnh.png 
http://img528.imageshack.us/img528/959/hjhyuikjuhg.png 
http://img688.imageshack.us/img688/8176/ghythbvfgh.png 
http://img694.imageshack.us/img694/3482/dfgtrtghvfd.png 
http://img69.imageshack.us/img69/9344/asdfgtrfvc.png

Cheep SeedBoxs:http://www.secureboxes.net/?r=st